HIERARCHY
ROOT Hips
{
	OFFSET 0.000000 0.000000 0.000000 
	CHANNELS 6 Xposition Yposition Zposition Yrotation Zrotation Xrotation 
	JOINT Lumbar
	{
		OFFSET 0.000000 0.000000 0.000000 
		CHANNELS 3 Zrotation Xrotation Yrotation
		JOINT Neck
		{
			OFFSET 0.000000 0.445665 0.000000 
			CHANNELS 3 Zrotation Xrotation Yrotation
			End Site
			{
				OFFSET 0.000000 0.227535 0.000000 
			}
		}
		JOINT RightShoulder
		{
			OFFSET 0.019635 0.377685 0.194865 
			CHANNELS 3 Zrotation Xrotation Yrotation
			JOINT RightElbow
			{
				OFFSET 0.000000 -0.243375 0.000000 
				CHANNELS 2 Zrotation Yrotation
				JOINT RightWrist
				{
					OFFSET 0.000000 -0.264825 0.000000 
					CHANNELS 2 Zrotation Xrotation
					End Site
					{
						OFFSET 0.006600 -0.176220 0.000990 
					}
				}
			}
		}
		JOINT LeftShoulder
		{
			OFFSET 0.019635 0.377685 -0.194865 
			CHANNELS 3 Zrotation Xrotation Yrotation
			JOINT LeftElbow
			{
				OFFSET 0.000000 -0.243375 0.000000 
				CHANNELS 2 Zrotation Yrotation
				JOINT LeftWrist
				{
					OFFSET 0.000000 -0.264825 0.000000 
					CHANNELS 2 Zrotation Xrotation
					End Site
					{
						OFFSET 0.006600 -0.176220 -0.000990 
					}
				}
			}
		}
	}
	JOINT RightHip
	{
		OFFSET 0.052140 -0.069960 0.075570 
		CHANNELS 3 Zrotation Xrotation Yrotation
		JOINT RightKnee
		{
			OFFSET 0.000000 -0.402270 0.000000 
			CHANNELS 1 Zrotation
			JOINT RightAnkle
			{
				OFFSET 0.000000 -0.404085 0.000000 
				CHANNELS 3 Zrotation Xrotation Yrotation
				End Site
				{
					OFFSET 0.204105 -0.089430 0.008415 
				}
			}
		}
	}
	JOINT LeftHip
	{
		OFFSET 0.052140 -0.069960 -0.075570 
		CHANNELS 3 Zrotation Xrotation Yrotation
		JOINT LeftKnee
		{
			OFFSET 0.000000 -0.402270 0.000000 
			CHANNELS 1 Zrotation
			JOINT LeftAnkle
			{
				OFFSET 0.000000 -0.404085 0.000000 
				CHANNELS 3 Zrotation Xrotation Yrotation
				End Site
				{
					OFFSET 0.204105 -0.089430 -0.008415 
				}
			}
		}
	}
}
MOTION
Frames: 32
Frame Time: 0.02
0 0.95578 0 182.08238 0 -3.15356 1.34488 2.48539 -3.41557 -37.19353 6.34696 2.29946 -9.24941 -72.39773 -79.66293 21.11286 74.52599 -18.02511 -2.27919 -2.89437 62.82186 74.72054 23.43823 -69.78918 -27.10303 2.0554 -1.48631 3.62451 5.67184 -7.81212 -1.80226 -3.69302 -6.69324 0.17148 4.51028 1.94604 -8.7429 5.99808 2.15034 -0.04236
0 0.95577 -5e-05 182.06805 0 -3.15334 1.33701 2.49479 -3.40771 -37.25037 6.3284 2.28939 -9.23243 -72.33087 -79.74885 21.12454 74.5966 -17.93876 -2.3258 -2.9587 62.83263 74.80623 23.46502 -69.82259 -27.11984 2.01017 -1.47698 3.62661 5.6803 -7.8254 -1.79877 -3.70102 -6.6877 0.1717 4.51123 1.93534 -8.74884 6.00394 2.16327 -0.02029
1e-05 0.95577 -9e-05 182.05361 0 -3.15312 1.32918 2.50418 -3.39979 -37.30687 6.30987 2.27943 -9.21559 -72.26416 -79.83406 21.13612 74.66707 -17.85298 -2.37201 -3.02283 62.84342 74.89187 23.4916 -69.85515 -27.13651 1.96548 -1.46768 3.62869 5.68874 -7.83864 -1.79531 -3.70894 -6.68207 0.17181 4.51218 1.9249 -8.75466 6.00976 2.17614 0.00163
1e-05 0.95576 -0.00014 182.03861 0 -3.15293 1.32144 2.51359 -3.39162 -37.36274 6.29139 2.26986 -9.19906 -72.19773 -79.91733 21.14753 74.7375 -17.76882 -2.41694 -3.08662 62.85409 74.9781 23.51746 -69.88483 -27.15275 1.9224 -1.45843 3.63075 5.69733 -7.85177 -1.79204 -3.71662 -6.67616 0.17158 4.51316 1.91548 -8.76016 6.01553 2.18886 0.02311
2e-05 0.95575 -0.00019 182.02661 0 -3.15262 1.31325 2.52287 -3.38488 -37.42218 6.27278 2.25827 -9.18081 -72.13019 -80.01094 21.16002 74.80795 -17.67628 -2.46849 -3.15201 62.86505 75.06119 23.547 -69.93 -27.17123 1.87065 -1.44894 3.63297 5.70531 -7.86539 -1.78789 -3.7256 -6.67194 0.17325 4.51403 1.90076 -8.7675 6.02163 2.20236 0.04681
1e-05 0.95574 -0.00023 182.00824 0 -3.15256 1.30601 2.53244 -3.37507 -37.47386 6.25437 2.25096 -9.16626 -72.06481 -80.08255 21.17009 74.87841 -17.60145 -2.50609 -3.21408 62.87559 75.15086 23.56881 -69.9422 -27.18498 1.83736 -1.43997 3.63481 5.71443 -7.87801 -1.78554 -3.73179 -6.66396 0.17083 4.5151 1.89721 -8.77083 6.02699 2.21422 0.06588
-4e-05 0.95574 -0.00026 181.97134 0 -3.15326 1.30137 2.54266 -3.35657 -37.50594 6.23687 2.25569 -9.16122 -72.0059 -80.09344 21.17435 74.94962 -17.57609 -2.50391 -3.26715 62.88351 75.26165 23.56827 -69.86176 -27.18542 1.85547 -1.43211 3.63584 5.72799 -7.88793 -1.78876 -3.73038 -6.6461 0.15728 4.51701 1.92556 -8.76348 6.03074 2.22161 0.0717
-0.00011 0.95574 -0.00028 181.92813 0 -3.15417 1.29771 2.55316 -3.33501 -37.52989 6.21951 2.26468 -9.15991 -71.94907 -80.08204 21.17602 75.02074 -17.56846 -2.48787 -3.31686 62.89124 75.37863 23.56008 -69.7483 -27.18115 1.89217 -1.42478 3.63641 5.74222 -7.89694 -1.79362 -3.72612 -6.62408 0.13949 4.51904 1.96485 -8.75189 6.03364 2.22741 0.07308
-0.00018 0.95574 -0.0003 181.88836 0 -3.15497 1.29361 2.56367 -3.31495 -37.55639 6.20182 2.27156 -9.15751 -71.89079 -80.08097 21.17827 75.09156 -17.5523 -2.47903 -3.36807 62.90008 75.49108 23.55604 -69.65083 -27.17922 1.92009 -1.41745 3.63709 5.75561 -7.9062 -1.79744 -3.72313 -6.60389 0.12358 4.52091 1.99863 -8.74208 6.03673 2.23385 0.07661
-0.00024 0.95575 -0.00033 181.84617 0 -3.15593 1.28944 2.57373 -3.29436 -37.58769 6.18518 2.27919 -9.15305 -71.83436 -80.07945 21.18295 75.16396 -17.53815 -2.46647 -3.41944 62.90477 75.61092 23.54922 -69.54901 -27.17644 1.94937 -1.40929 3.63836 5.77229 -7.91574 -1.8028 -3.72036 -6.58492 0.10811 4.52339 2.03526 -8.73327 6.04082 2.24039 0.07898
-0.00032 0.95575 -0.00035 181.80753 0 -3.15646 1.28572 2.58464 -3.27423 -37.60711 6.16651 2.28628 -9.15313 -71.77493 -80.07307 21.18208 75.23283 -17.52405 -2.45826 -3.4696 62.91785 75.71661 23.54628 -69.44866 -27.17431 1.98029 -1.40275 3.63807 5.781 -7.925 -1.80495 -3.71633 -6.56119 0.09044 4.52441 2.06782 -8.7209 6.04239 2.24667 0.08344
-0.00043 0.95575 -0.00032 181.78028 0 -3.15703 1.28233 2.59923 -3.2554 -37.59532 6.141 2.2908 -9.1705 -71.70373 -80.06296 21.16532 75.29392 -17.50541 -2.46628 -3.51783 62.95583 75.78352 23.55668 -69.35868 -27.17523 2.01064 -1.40283 3.63571 5.77938 -7.92904 -1.80135 -3.71051 -6.5369 0.07015 4.52342 2.09338 -8.7042 6.03947 2.24971 0.08794
-0.00056 0.95574 -0.00029 181.75685 0 -3.15696 1.27947 2.61445 -3.23729 -37.57189 6.11365 2.29466 -9.1913 -71.62999 -80.04794 21.14331 75.35106 -17.48631 -2.47898 -3.56478 63.00191 75.83553 23.5711 -69.27195 -27.17694 2.04208 -1.40423 3.63151 5.76815 -7.93346 -1.79396 -3.70341 -6.50645 0.04747 4.52065 2.11352 -8.68348 6.03376 2.25296 0.09558
-0.00069 0.95574 -0.00025 181.73162 0 -3.15623 1.27683 2.62839 -3.21927 -37.55413 6.08795 2.29885 -9.20674 -71.55939 -80.03236 21.12443 75.40875 -17.46758 -2.48901 -3.612 63.0432 75.8933 23.58316 -69.18446 -27.17819 2.07341 -1.40339 3.62664 5.75275 -7.94107 -1.78577 -3.69617 -6.47041 0.02415 4.51722 2.13116 -8.66136 6.02769 2.25822 0.10669
-0.00081 0.95574 -0.00022 181.70634 0 -3.15926 1.27234 2.64631 -3.19924 -37.53472 6.0589 2.303 -9.23813 -71.48054 -80.02774 21.10219 75.47183 -17.44865 -2.5009 -3.66069 63.0893 75.95597 23.59717 -69.09145 -27.17965 2.10387 -1.40898 3.62768 5.77078 -7.93543 -1.78759 -3.6916 -6.46701 0.00743 4.51966 2.16872 -8.65172 6.0279 2.25514 0.09848
-0.00094 0.95573 -0.00018 181.68229 0 -3.15464 1.27177 2.65639 -3.1838 -37.51582 6.03632 2.30711 -9.23738 -71.41817 -79.99949 21.08592 75.5226 -17.42997 -2.51015 -3.70569 63.12716 76.0043 23.60822 -69.0128 -27.18099 2.13603 -1.40213 3.61649 5.72019 -7.95628 -1.76851 -3.68154 -6.39755 -0.02288 4.50991 2.16513 -8.61646 6.01506 2.26873 0.12943
-0.00113 0.95574 -0.0001 181.65942 0 -3.12632 1.28227 2.64191 -3.17911 -37.50346 6.03269 2.31036 -9.1441 -71.40259 -79.9067 21.08583 75.54186 -17.41038 -2.51148 -3.74409 63.14143 76.0212 23.61007 -68.95922 -27.18132 2.17365 -1.35488 3.56753 5.45367 -8.06091 -1.68491 -3.65358 -6.11803 -0.09605 4.46272 2.03375 -8.50032 5.96092 2.33503 0.28426
-0.00133 0.95575 -0 181.6379 0 -3.09082 1.2966 2.61999 -3.17934 -37.49164 6.03553 2.31369 -9.01885 -71.40351 -79.79047 21.09233 75.54872 -17.39127 -2.50999 -3.77828 63.14683 76.02337 23.60899 -68.92285 -27.18159 2.21269 -1.29603 3.50709 5.12338 -8.19035 -1.58174 -3.62068 -5.7773 -0.18178 4.40405 1.86376 -8.36048 5.89476 2.41692 0.47555
-0.00152 0.95575 9e-05 181.61665 0 -3.06047 1.30893 2.60331 -3.17854 -37.47817 6.03496 2.31758 -8.9102 -71.39646 -79.68544 21.0967 75.56014 -17.37299 -2.50943 -3.8122 63.15571 76.02922 23.60917 -68.88763 -27.18227 2.25027 -1.24632 3.45489 4.84168 -8.30125 -1.49273 -3.59213 -5.48428 -0.25778 4.35348 1.72184 -8.23905 5.83809 2.48713 0.63902
-0.00172 0.95576 0.00018 181.59187 0 -3.02232 1.32244 2.57894 -3.17279 -37.47027 6.03623 2.31907 -8.79311 -71.39142 -79.57804 21.0968 75.57551 -17.35037 -2.51028 -3.85506 63.16763 76.04707 23.60926 -68.81406 -27.18147 2.29121 -1.18064 3.39012 4.47857 -8.44222 -1.38176 -3.55485 -5.10878 -0.35052 4.29093 1.53626 -8.08592 5.7647 2.5764 0.84912
-0.00191 0.95577 0.00027 181.57463 0 -2.99851 1.33433 2.56862 -3.17836 -37.45098 6.03532 2.32541 -8.68573 -71.38603 -79.46993 21.10799 75.58034 -17.33679 -2.50773 -3.87861 63.17047 76.03689 23.60946 -68.82511 -27.18357 2.32564 -1.14505 3.34851 4.26786 -8.5272 -1.31142 -3.53435 -4.88846 -0.41175 4.25033 1.43132 -7.99239 5.72286 2.63012 0.97195
-0.00208 0.95576 0.00038 181.57844 0 -3.01776 1.34144 2.60075 -3.2152 -37.40063 6.02602 2.34661 -8.61487 -71.37673 -79.36682 21.14374 75.55401 -17.34906 -2.49435 -3.84723 63.15487 75.95079 23.60496 -69.05969 -27.19502 2.34006 -1.19896 3.37642 4.51244 -8.44491 -1.3627 -3.56354 -5.13036 -0.37919 4.27582 1.56869 -8.07653 5.77495 2.57813 0.83417
-0.00225 0.95576 0.00049 181.58967 0 -3.05139 1.34666 2.64692 -3.26304 -37.33876 6.01447 2.37241 -8.5545 -71.36632 -79.26362 21.19152 75.51849 -17.37015 -2.47803 -3.79706 63.1295 75.83746 23.60177 -69.37986 -27.20905 2.34815 -1.28288 3.42755 4.90921 -8.30661 -1.45474 -3.60942 -5.52716 -0.31513 4.32335 1.78669 -8.22016 5.85852 2.49054 0.60923
-0.00241 0.95575 0.0006 181.59707 0 -3.07733 1.35234 2.68547 -3.305 -37.28186 6.00448 2.39513 -8.48808 -71.35574 -79.1597 21.23642 75.49049 -17.38667 -2.46442 -3.75727 63.10569 75.73811 23.60166 -69.66482 -27.22116 2.36026 -1.35069 3.46622 5.2239 -8.19829 -1.52512 -3.64626 -5.84066 -0.26792 4.35905 1.96106 -8.33175 5.92514 2.42172 0.43123
-0.00258 0.95575 0.00071 181.60636 0 -3.10788 1.35986 2.72904 -3.35075 -37.22607 5.9924 2.42203 -8.42599 -71.34865 -79.05812 21.2696 75.44781 -17.40595 -2.44486 -3.70961 63.09396 75.63154 23.5857 -69.93509 -27.23684 2.36771 -1.42848 3.51246 5.59057 -8.07185 -1.608 -3.68902 -6.20615 -0.21052 4.40191 2.16345 -8.4635 6.00243 2.34254 0.22375
-0.00275 0.95575 0.00082 181.61355 0 -3.13237 1.363 2.76555 -3.3913 -37.16525 5.98412 2.4413 -8.35776 -71.33375 -78.95198 21.33125 75.43386 -17.4211 -2.43709 -3.67387 63.0546 75.53366 23.60336 -70.25569 -27.24519 2.38317 -1.49285 3.54868 5.88634 -7.96939 -1.67485 -3.72353 -6.50138 -0.16661 4.43534 2.32729 -8.56789 6.06521 2.27624 0.05627
-0.00289 0.95575 0.00093 181.61239 0 -3.13638 1.35506 2.77931 -3.41367 -37.09326 5.98626 2.43845 -8.2705 -71.29791 -78.83298 21.45765 75.50021 -17.42687 -2.46221 -3.6762 62.94336 75.46744 23.71176 -70.69708 -27.23677 2.42366 -1.51214 3.55095 5.94591 -7.94796 -1.68686 -3.73076 -6.56123 -0.16853 4.43679 2.36377 -8.5807 6.07965 2.25451 0.02252
-0.00302 0.95575 0.00103 181.60896 0 -3.13389 1.34267 2.78546 -3.43062 -37.01664 5.9924 2.42775 -8.17675 -71.25416 -78.7095 21.61435 75.59629 -17.42747 -2.49937 -3.69108 62.80422 75.41092 23.85444 -71.18519 -27.22005 2.47213 -1.51709 3.54251 5.92978 -7.95225 -1.68155 -3.72923 -6.54597 -0.18491 4.42818 2.3591 -8.56433 6.07858 2.24685 0.03152
-0.00316 0.95575 0.00114 181.60709 0 -3.13458 1.33194 2.79501 -3.45081 -36.94219 5.99706 2.42057 -8.08588 -71.21363 -78.58844 21.76419 75.67935 -17.42759 -2.53134 -3.69991 62.67667 75.34926 23.9824 -71.6505 -27.20453 2.51605 -1.52913 3.53943 5.95072 -7.9439 -1.68465 -3.73204 -6.56771 -0.19403 4.4246 2.37424 -8.56242 6.08504 2.23249 0.01947
-0.0033 0.95575 0.00125 181.60337 0 -3.13483 1.32264 2.80535 -3.46814 -36.86696 6.00015 2.41373 -7.99578 -71.1744 -78.46596 21.88497 75.75908 -17.43968 -2.56212 -3.70963 62.55374 75.28927 24.10615 -72.12698 -27.20022 2.56376 -1.53978 3.53505 5.96567 -7.93764 -1.68685 -3.73394 -6.58279 -0.20494 4.41982 2.38748 -8.55752 6.09055 2.21814 0.01114
-0.00343 0.95575 0.00134 181.60274 0 -3.13426 1.30936 2.81197 -3.48996 -36.79252 6.00761 2.40431 -7.90225 -71.13092 -78.34509 22.07371 75.85407 -17.42586 -2.59813 -3.7206 62.41423 75.22906 24.24758 -72.58819 -27.1702 2.60542 -1.54952 3.53056 5.97314 -7.93386 -1.68631 -3.73541 -6.5918 -0.21601 4.41488 2.39386 -8.55112 6.09396 2.20761 0.00647
-0.00357 0.95574 0.00138 181.61233 0 -3.13284 1.28609 2.81091 -3.52561 -36.72047 6.02508 2.38898 -7.80209 -71.07429 -78.23254 22.44047 75.9735 -17.33837 -2.64689 -3.73312 62.23933 75.16089 24.4232 -73.01154 -27.07385 2.62951 -1.56027 3.52814 5.9777 -7.9309 -1.68195 -3.73784 -6.60244 -0.22377 4.41172 2.39082 -8.54775 6.09515 2.20413 0.00076
